# xmcd CD database file
#
# Track frame offsets:
#	150
#	24305
#	43057
#	69817
#
# Disc length: 1179 seconds
#
# Revision: 0
# Processed by: cddbd v1.5.1PL0 Copyright (c) Steve Scherf et al.
# Submitted via: CDex 1.51
#
DISCID=27049904
DTITLE=chieco - KISS×3・LOVE&PEACE
DYEAR=1997
DGENRE=Anime
TTITLE0=KISS×3
TTITLE1=LOVE&PEACE
TTITLE2=KISS×3 (music track)
TTITLE3=LOVE&PEACE (music track)
EXTD=YEAR: 1997
EXTT0=
EXTT1=
EXTT2=
EXTT3=
PLAYORDER=
